<?xml version="1.0" encoding="UTF-8"?>
<svg xmlns="http://www.w3.org/2000/svg" xmlns:svg="http://www.w3.org/2000/svg" version="1.1" viewBox="0 0 1400 1150">
	<title>The titlepage for the Standard Ebooks edition of The Origin of Species, by Charles Darwin</title>
	<g style="font-size:93.56725311px;font-family:'League Spartan';letter-spacing:5px;text-anchor:middle;fill:#000000">
		<path d="m 29.241583,68.048245 q -10.05117,0 -15.990498,7.49269 -5.8936401,7.49269 -5.8936401,20.422149 0,12.883776 5.8936401,20.376466 5.939328,7.49269 15.990498,7.49269 10.05117,0 15.899123,-7.49269 5.89364,-7.49269 5.89364,-20.376466 0,-12.929459 -5.89364,-20.422149 -5.847953,-7.49269 -15.899123,-7.49269 z m 0,-7.492691 q 14.34576,0 22.934942,9.639986 8.589181,9.594298 8.589181,25.767544 0,16.127556 -8.589181,25.767546 -8.589182,9.5943 -22.934942,9.5943 -14.391448,0 -23.0263164,-9.5943 -8.5891815,-9.5943 -8.5891815,-25.767546 0,-16.173246 8.5891815,-25.767544 8.6348684,-9.639986 23.0263164,-9.639986 z" style="font-size:93.56725311px;font-family:'League Spartan';letter-spacing:5px;text-anchor:middle;fill:#000000"/>
		<path d="m 80.202838,61.789107 12.426901,0 30.244881,57.063233 0,-57.063233 8.95468,0 0,68.210893 -12.4269,0 -30.244883,-57.063232 0,57.063232 -8.954679,0 0,-68.210893 z" style="font-size:93.56725311px;font-family:'League Spartan';letter-spacing:5px;text-anchor:middle;fill:#000000"/>
		<path d="m 180.5263,61.789107 57.70285,0 0,7.766813 -24.21418,0 0,60.44408 -9.27449,0 0,-60.44408 -24.21418,0 0,-7.766813 z" style="font-size:93.56725311px;font-family:'League Spartan';letter-spacing:5px;text-anchor:middle;fill:#000000"/>
		<path d="m 252.18384,61.789107 9.2288,0 0,27.960527 33.53436,0 0,-27.960527 9.2288,0 0,68.210893 -9.2288,0 0,-32.483553 -33.53436,0 0,32.483553 -9.2288,0 0,-68.210893 z" style="font-size:93.56725311px;font-family:'League Spartan';letter-spacing:5px;text-anchor:middle;fill:#000000"/>
		<path d="m 327.54203,61.789107 43.12865,0 0,7.766813 -33.89985,0 0,20.193714 32.48355,0 0,7.766813 -32.48355,0 0,24.716743 34.72222,0 0,7.76681 -43.95102,0 0,-68.210893 z" style="font-size:93.56725311px;font-family:'League Spartan';letter-spacing:5px;text-anchor:middle;fill:#000000"/>
		<path d="m 454.22696,68.048245 q -10.05116,0 -15.99049,7.49269 -5.89364,7.49269 -5.89364,20.422149 0,12.883776 5.89364,20.376466 5.93933,7.49269 15.99049,7.49269 10.05117,0 15.89913,-7.49269 5.89364,-7.49269 5.89364,-20.376466 0,-12.929459 -5.89364,-20.422149 -5.84796,-7.49269 -15.89913,-7.49269 z m 0,-7.492691 q 14.34577,0 22.93495,9.639986 8.58918,9.594298 8.58918,25.767544 0,16.127556 -8.58918,25.767546 -8.58918,9.5943 -22.93495,9.5943 -14.39144,0 -23.02631,-9.5943 -8.58918,-9.5943 -8.58918,-25.767546 0,-16.173246 8.58918,-25.767544 8.63487,-9.639986 23.02631,-9.639986 z" style="font-size:93.56725311px;font-family:'League Spartan';letter-spacing:5px;text-anchor:middle;fill:#000000"/>
		<path d="m 537.5347,98.019005 q 2.96966,1.005117 5.75658,4.294595 2.8326,3.28947 5.6652,9.04605 L 558.32234,130 l -9.91411,0 -8.72624,-17.49817 q -3.38085,-6.85307 -6.57895,-9.09174 -3.15241,-2.23867 -8.63486,-2.23867 l -10.05117,0 0,28.82858 -9.22881,0 0,-68.210893 20.83334,0 q 11.69591,0 17.45248,4.888523 5.75658,4.888524 5.75658,14.756945 0,6.441886 -3.01535,10.69079 -2.96966,4.248903 -8.68055,5.89364 z m -23.11769,-28.645834 0,24.214182 11.60453,0 q 6.67032,0 10.05117,-3.061038 3.42653,-3.106725 3.42653,-9.09174 0,-5.985015 -3.42653,-9.000365 -3.38085,-3.061039 -10.05117,-3.061039 l -11.60453,0 z" style="font-size:93.56725311px;font-family:'League Spartan';letter-spacing:5px;text-anchor:middle;fill:#000000"/>
		<path d="m 575.24671,61.789107 9.2288,0 0,68.210893 -9.2288,0 0,-68.210893 z" style="font-size:93.56725311px;font-family:'League Spartan';letter-spacing:5px;text-anchor:middle;fill:#000000"/>
		<path d="m 654.35124,120.26864 0,-18.32054 -15.07675,0 0,-7.584066 24.21418,0 0,29.285456 q -5.3454,3.79203 -11.78728,5.75658 -6.44189,1.91886 -13.75183,1.91886 -15.9905,0 -25.03655,-9.32018 -9.00036,-9.36586 -9.00036,-26.041666 0,-16.721491 9.00036,-26.041667 9.04605,-9.365863 25.03655,-9.365863 6.67032,0 12.65534,1.644737 6.0307,1.644737 11.10197,4.842837 l 0,9.822734 q -5.11696,-4.340278 -10.87354,-6.533261 -5.75658,-2.192982 -12.10709,-2.192982 -12.51827,0 -18.8231,6.990131 -6.25914,6.990132 -6.25914,20.833334 0,13.797516 6.25914,20.787646 6.30483,6.99013 18.8231,6.99013 4.88853,0 8.72625,-0.82237 3.83771,-0.86805 6.89875,-2.64985 z" style="font-size:93.56725311px;font-family:'League Spartan';letter-spacing:5px;text-anchor:middle;fill:#000000"/>
		<path d="m 685.39289,61.789107 9.2288,0 0,68.210893 -9.2288,0 0,-68.210893 z" style="font-size:93.56725311px;font-family:'League Spartan';letter-spacing:5px;text-anchor:middle;fill:#000000"/>
		<path d="m 717.98792,61.789107 12.4269,0 30.24488,57.063233 0,-57.063233 8.95468,0 0,68.210893 -12.4269,0 -30.24488,-57.063232 0,57.063232 -8.95468,0 0,-68.210893 z" style="font-size:93.56725311px;font-family:'League Spartan';letter-spacing:5px;text-anchor:middle;fill:#000000"/>
		<path d="m 855.45502,68.048245 q -10.05117,0 -15.99049,7.49269 -5.89365,7.49269 -5.89365,20.422149 0,12.883776 5.89365,20.376466 5.93932,7.49269 15.99049,7.49269 10.05117,0 15.89913,-7.49269 5.89364,-7.49269 5.89364,-20.376466 0,-12.929459 -5.89364,-20.422149 -5.84796,-7.49269 -15.89913,-7.49269 z m 0,-7.492691 q 14.34576,0 22.93494,9.639986 8.58919,9.594298 8.58919,25.767544 0,16.127556 -8.58919,25.767546 -8.58918,9.5943 -22.93494,9.5943 -14.39144,0 -23.02631,-9.5943 -8.58918,-9.5943 -8.58918,-25.767546 0,-16.173246 8.58918,-25.767544 8.63487,-9.639986 23.02631,-9.639986 z" style="font-size:93.56725311px;font-family:'League Spartan';letter-spacing:5px;text-anchor:middle;fill:#000000"/>
		<path d="m 906.41626,61.789107 39.19956,0 0,7.766813 -29.97076,0 0,20.10234 27.04679,0 0,7.766813 -27.04679,0 0,32.574927 -9.2288,0 0,-68.210893 z" style="font-size:93.56725311px;font-family:'League Spartan';letter-spacing:5px;text-anchor:middle;fill:#000000"/>
		<path d="m 1041.0051,64.027777 0,9.000365 q -5.254,-2.512792 -9.9141,-3.746345 -4.6601,-1.233552 -9.0004,-1.233552 -7.5383,0 -11.6502,2.923976 -4.0661,2.923977 -4.0661,8.315059 0,4.523026 2.6955,6.85307 2.7412,2.284357 10.3253,3.700658 l 5.5738,1.142178 q 10.3253,1.964547 15.2138,6.944445 4.9342,4.934209 4.9342,13.249269 0,9.91411 -6.6703,15.03107 -6.6246,5.11696 -19.4627,5.11696 -4.8428,0 -10.3253,-1.09649 -5.4368,-1.0965 -11.28471,-3.24379 l 0,-9.50293 q 5.61951,3.15242 11.01061,4.75147 5.3911,1.59905 10.5994,1.59905 7.9039,0 12.1985,-3.10673 4.2946,-3.10672 4.2946,-8.8633 0,-5.02559 -3.1068,-7.85819 -3.061,-2.8326 -10.0968,-4.248904 l -5.6195,-1.096491 q -10.3253,-2.055921 -14.9397,-6.441886 -4.61444,-4.385965 -4.61444,-12.198465 0,-9.046053 6.35054,-14.254386 6.3962,-5.208334 17.5895,-5.208334 4.7972,0 9.7771,0.868056 4.9799,0.868055 10.1882,2.604167 z" style="font-size:93.56725311px;font-family:'League Spartan';letter-spacing:5px;text-anchor:middle;fill:#000000"/>
		<path d="m 1073.7372,69.373171 0,25.630483 11.6046,0 q 6.4418,0 9.9598,-3.335161 3.5179,-3.33516 3.5179,-9.502924 0,-6.122076 -3.5179,-9.457237 -3.518,-3.335161 -9.9598,-3.335161 l -11.6046,0 z m -9.2288,-7.584064 20.8334,0 q 11.4674,0 17.3154,5.208333 5.8936,5.162647 5.8936,15.168129 0,10.096857 -5.8936,15.259504 -5.848,5.162647 -17.3154,5.162647 l -11.6046,0 0,27.41228 -9.2288,0 0,-68.210893 z" style="font-size:93.56725311px;font-family:'League Spartan';letter-spacing:5px;text-anchor:middle;fill:#000000"/>
		<path d="m 1125.9777,61.789107 43.1286,0 0,7.766813 -33.8998,0 0,20.193714 32.4835,0 0,7.766813 -32.4835,0 0,24.716743 34.7222,0 0,7.76681 -43.951,0 0,-68.210893 z" style="font-size:93.56725311px;font-family:'League Spartan';letter-spacing:5px;text-anchor:middle;fill:#000000"/>
		<path d="m 1241.2665,67.043128 0,9.731359 q -4.6601,-4.340277 -9.9598,-6.487573 -5.2541,-2.147295 -11.1934,-2.147295 -11.6959,0 -17.9093,7.17288 -6.2135,7.127193 -6.2135,20.650585 0,13.477706 6.2135,20.650586 6.2134,7.12719 17.9093,7.12719 5.9393,0 11.1934,-2.14729 5.2997,-2.1473 9.9598,-6.48758 l 0,9.63999 q -4.8429,3.28947 -10.2797,4.93421 -5.391,1.64474 -11.4217,1.64474 -15.488,0 -24.397,-9.45724 -8.909,-9.50292 -8.909,-25.904606 0,-16.447369 8.909,-25.904606 8.909,-9.502924 24.397,-9.502924 6.122,0 11.5131,1.644737 5.4368,1.59905 10.1883,4.842837 z" style="font-size:93.56725311px;font-family:'League Spartan';letter-spacing:5px;text-anchor:middle;fill:#000000"/>
		<path d="m 1260.6122,61.789107 9.2288,0 0,68.210893 -9.2288,0 0,-68.210893 z" style="font-size:93.56725311px;font-family:'League Spartan';letter-spacing:5px;text-anchor:middle;fill:#000000"/>
		<path d="m 1293.2073,61.789107 43.1286,0 0,7.766813 -33.8998,0 0,20.193714 32.4835,0 0,7.766813 -32.4835,0 0,24.716743 34.7222,0 0,7.76681 -43.951,0 0,-68.210893 z" style="font-size:93.56725311px;font-family:'League Spartan';letter-spacing:5px;text-anchor:middle;fill:#000000"/>
		<path d="m 1398.3077,64.027777 0,9.000365 q -5.254,-2.512792 -9.9141,-3.746345 -4.6601,-1.233552 -9.0004,-1.233552 -7.5383,0 -11.6502,2.923976 -4.0661,2.923977 -4.0661,8.315059 0,4.523026 2.6955,6.85307 2.7412,2.284357 10.3253,3.700658 l 5.5738,1.142178 q 10.3253,1.964547 15.2138,6.944445 4.9343,4.934209 4.9343,13.249269 0,9.91411 -6.6704,15.03107 -6.6246,5.11696 -19.4627,5.11696 -4.8428,0 -10.3253,-1.09649 -5.4367,-1.0965 -11.2847,-3.24379 l 0,-9.50293 q 5.6195,3.15242 11.0106,4.75147 5.3911,1.59905 10.5994,1.59905 7.9039,0 12.1985,-3.10673 4.2946,-3.10672 4.2946,-8.8633 0,-5.02559 -3.1068,-7.85819 -3.061,-2.8326 -10.0968,-4.248904 l -5.6195,-1.096491 q -10.3253,-2.055921 -14.9397,-6.441886 -4.6144,-4.385965 -4.6144,-12.198465 0,-9.046053 6.3505,-14.254386 6.3962,-5.208334 17.5895,-5.208334 4.7972,0 9.7771,0.868056 4.9799,0.868055 10.1882,2.604167 z" style="font-size:93.56725311px;font-family:'League Spartan';letter-spacing:5px;text-anchor:middle;fill:#000000"/>
	</g>
	<g style="font-size:93.56725311px;font-family:'League Spartan';letter-spacing:5px;text-anchor:middle;fill:#000000">
		<path d="m -176.42363,197.42507 0,24.99087 14.80264,0 q 7.447,0 11.0106,-3.06104 3.60928,-3.10673 3.60928,-9.45724 0,-6.3962 -3.60928,-9.41155 -3.5636,-3.06104 -11.0106,-3.06104 l -14.80264,0 z m 0,-28.0519 0,20.55921 13.66046,0 q 6.76169,0 10.05117,-2.51279 3.33516,-2.55848 3.33516,-7.76681 0,-5.16265 -3.33516,-7.72113 -3.28948,-2.55848 -10.05117,-2.55848 l -13.66046,0 z m -9.2288,-7.58406 23.57457,0 q 10.55372,0 16.26462,4.38596 5.71089,4.38597 5.71089,12.47259 0,6.25914 -2.92398,9.9598 -2.92398,3.70065 -8.58918,4.6144 6.80738,1.46198 10.55373,6.12207 3.79203,4.6144 3.79203,11.55885 0,9.13742 -6.21345,14.11732 Q -149.69665,230 -161.16412,230 l -24.48831,0 0,-68.21089 z" style="font-size:93.56725311px;font-family:'League Spartan';letter-spacing:5px;text-anchor:middle;fill:#000000"/>
		<path d="m -130.99051,161.78911 9.91411,0 18.91447,28.0519 18.777414,-28.0519 9.914109,0 -24.122808,35.72734 0,32.48355 -9.274485,0 0,-32.48355 -24.12281,-35.72734 z" style="font-size:93.56725311px;font-family:'League Spartan';letter-spacing:5px;text-anchor:middle;fill:#000000"/>
		<path d="m -24.636344,161.78911 13.751828,0 17.4067984,46.41813 17.4981726,-46.41813 13.751828,0 0,68.21089 -9.000366,0 0,-59.89583 -17.589547,46.78362 -9.2744883,0 -17.5895467,-46.78362 0,59.89583 -8.954679,0 0,-68.21089 z" style="font-size:93.56725311px;font-family:'League Spartan';letter-spacing:5px;text-anchor:middle;fill:#000000"/>
		<path d="m 61.138513,161.78911 43.128657,0 0,7.76681 -33.899856,0 0,20.19371 32.483556,0 0,7.76682 -32.483556,0 0,24.71674 34.722226,0 0,7.76681 -43.951027,0 0,-68.21089 z" style="font-size:93.56725311px;font-family:'League Spartan';letter-spacing:5px;text-anchor:middle;fill:#000000"/>
		<path d="m 148.14692,170.88085 -12.51828,33.94554 25.08224,0 -12.56396,-33.94554 z m -5.20833,-9.09174 10.46235,0 25.99598,68.21089 -9.5943,0 -6.21345,-17.49817 -30.74744,0 -6.21345,17.49817 -9.73136,0 26.04167,-68.21089 z" style="font-size:93.56725311px;font-family:'League Spartan';letter-spacing:5px;text-anchor:middle;fill:#000000"/>
		<path d="m 194.31104,161.78911 12.4269,0 30.24489,57.06323 0,-57.06323 8.95468,0 0,68.21089 -12.4269,0 -30.24489,-57.06323 0,57.06323 -8.95468,0 0,-68.21089 z" style="font-size:93.56725311px;font-family:'League Spartan';letter-spacing:5px;text-anchor:middle;fill:#000000"/>
		<path d="m 310.19371,164.02778 0,9.00036 q -5.25402,-2.51279 -9.91411,-3.74634 -4.66009,-1.23356 -9.00037,-1.23356 -7.53838,0 -11.65022,2.92398 -4.06615,2.92398 -4.06615,8.31506 0,4.52303 2.69554,6.85307 2.74123,2.28436 10.32529,3.70066 l 5.57383,1.14218 q 10.32529,1.96454 15.21382,6.94444 4.93421,4.93421 4.93421,13.24927 0,9.91411 -6.67032,15.03107 -6.62464,5.11696 -19.46272,5.11696 -4.84284,0 -10.3253,-1.09649 -5.43677,-1.0965 -11.28472,-3.24379 l 0,-9.50293 q 5.61952,3.15242 11.0106,4.75147 5.39108,1.59905 10.59942,1.59905 7.90387,0 12.19846,-3.10673 4.29459,-3.10672 4.29459,-8.8633 0,-5.02559 -3.10672,-7.85819 -3.06104,-2.8326 -10.09686,-4.2489 l -5.61952,-1.09649 q -10.32529,-2.05593 -14.93969,-6.44189 -4.6144,-4.38597 -4.6144,-12.19847 0,-9.04605 6.35051,-14.25438 6.3962,-5.20834 17.58955,-5.20834 4.79715,0 9.77704,0.86806 4.9799,0.86806 10.18824,2.60417 z" style="font-size:93.56725311px;font-family:'League Spartan';letter-spacing:5px;text-anchor:middle;fill:#000000"/>
		<path d="m 396.17143,168.04824 q -10.05117,0 -15.9905,7.49269 -5.89364,7.49269 -5.89364,20.42215 0,12.88378 5.89364,20.37647 5.93933,7.49269 15.9905,7.49269 10.05117,0 15.89912,-7.49269 5.89364,-7.49269 5.89364,-20.37647 0,-12.92946 -5.89364,-20.42215 -5.84795,-7.49269 -15.89912,-7.49269 z m 0,-7.49269 q 14.34576,0 22.93494,9.63999 8.58918,9.5943 8.58918,25.76754 0,16.12756 -8.58918,25.76755 -8.58918,9.5943 -22.93494,9.5943 -14.39145,0 -23.02632,-9.5943 -8.58918,-9.5943 -8.58918,-25.76755 0,-16.17324 8.58918,-25.76754 8.63487,-9.63999 23.02632,-9.63999 z" style="font-size:93.56725311px;font-family:'League Spartan';letter-spacing:5px;text-anchor:middle;fill:#000000"/>
		<path d="m 447.13267,161.78911 39.19956,0 0,7.76681 -29.97076,0 0,20.10234 27.04678,0 0,7.76681 -27.04678,0 0,32.57493 -9.2288,0 0,-68.21089 z" style="font-size:93.56725311px;font-family:'League Spartan';letter-spacing:5px;text-anchor:middle;fill:#000000"/>
		<path d="m 540.83152,161.78911 12.4269,0 30.24489,57.06323 0,-57.06323 8.95467,0 0,68.21089 -12.4269,0 -30.24488,-57.06323 0,57.06323 -8.95468,0 0,-68.21089 z" style="font-size:93.56725311px;font-family:'League Spartan';letter-spacing:5px;text-anchor:middle;fill:#000000"/>
		<path d="m 638.62208,170.88085 -12.51828,33.94554 25.08224,0 -12.56396,-33.94554 z m -5.20834,-9.09174 10.46236,0 25.99598,68.21089 -9.5943,0 -6.21345,-17.49817 -30.74744,0 -6.21345,17.49817 -9.73136,0 26.04166,-68.21089 z" style="font-size:93.56725311px;font-family:'League Spartan';letter-spacing:5px;text-anchor:middle;fill:#000000"/>
		<path d="m 668.019,161.78911 57.70285,0 0,7.76681 -24.21418,0 0,60.44408 -9.27449,0 0,-60.44408 -24.21418,0 0,-7.76681 z" style="font-size:93.56725311px;font-family:'League Spartan';letter-spacing:5px;text-anchor:middle;fill:#000000"/>
		<path d="m 738.62575,161.78911 9.27449,0 0,41.43823 q 0,10.96491 3.97478,15.80775 3.97478,4.79715 12.88377,4.79715 8.8633,0 12.83809,-4.79715 3.97478,-4.84284 3.97478,-15.80775 l 0,-41.43823 9.27448,0 0,42.58041 q 0,13.34064 -6.62463,20.14802 -6.57895,6.80739 -19.46272,6.80739 -12.92946,0 -19.55409,-6.80739 -6.57895,-6.80738 -6.57895,-20.14802 l 0,-42.58041 z" style="font-size:93.56725311px;font-family:'League Spartan';letter-spacing:5px;text-anchor:middle;fill:#000000"/>
		<path d="m 845.55375,198.01901 q 2.96966,1.00511 5.75657,4.29459 2.83261,3.28947 5.66521,9.04605 L 866.34139,230 l -9.91411,0 -8.72624,-17.49817 q -3.38085,-6.85307 -6.57895,-9.09174 -3.15241,-2.23867 -8.63487,-2.23867 l -10.05117,0 0,28.82858 -9.2288,0 0,-68.21089 20.83334,0 q 11.6959,0 17.45248,4.88852 5.75658,4.88852 5.75658,14.75695 0,6.44188 -3.01535,10.69078 -2.96966,4.24891 -8.68055,5.89365 z m -23.1177,-28.64584 0,24.21418 11.60454,0 q 6.67032,0 10.05117,-3.06103 3.42653,-3.10673 3.42653,-9.09174 0,-5.98502 -3.42653,-9.00037 -3.38085,-3.06104 -10.05117,-3.06104 l -11.60454,0 z" style="font-size:93.56725311px;font-family:'League Spartan';letter-spacing:5px;text-anchor:middle;fill:#000000"/>
		<path d="m 902.2259,170.88085 -12.51828,33.94554 25.08224,0 -12.56396,-33.94554 z m -5.20834,-9.09174 10.46236,0 L 933.4759,230 l -9.5943,0 -6.21345,-17.49817 -30.74744,0 -6.21345,17.49817 -9.73136,0 26.04166,-68.21089 z" style="font-size:93.56725311px;font-family:'League Spartan';letter-spacing:5px;text-anchor:middle;fill:#000000"/>
		<path d="m 948.38993,161.78911 9.2288,0 0,60.44408 33.21455,0 0,7.76681 -42.44335,0 0,-68.21089 z" style="font-size:93.56725311px;font-family:'League Spartan';letter-spacing:5px;text-anchor:middle;fill:#000000"/>
		<path d="m 1081.1514,164.02778 0,9.00036 q -5.254,-2.51279 -9.9141,-3.74634 -4.6601,-1.23356 -9.0004,-1.23356 -7.5384,0 -11.6502,2.92398 -4.0662,2.92398 -4.0662,8.31506 0,4.52303 2.6956,6.85307 2.7412,2.28436 10.3253,3.70066 l 5.5738,1.14218 q 10.3253,1.96454 15.2138,6.94444 4.9342,4.93421 4.9342,13.24927 0,9.91411 -6.6703,15.03107 -6.6246,5.11696 -19.4627,5.11696 -4.8429,0 -10.3253,-1.09649 -5.4368,-1.0965 -11.2847,-3.24379 l 0,-9.50293 q 5.6195,3.15242 11.0106,4.75147 5.391,1.59905 10.5994,1.59905 7.9039,0 12.1984,-3.10673 4.2946,-3.10672 4.2946,-8.8633 0,-5.02559 -3.1067,-7.85819 -3.061,-2.8326 -10.0968,-4.2489 l -5.6196,-1.09649 q -10.3253,-2.05593 -14.9397,-6.44189 -4.6144,-4.38597 -4.6144,-12.19847 0,-9.04605 6.3506,-14.25438 6.3962,-5.20834 17.5895,-5.20834 4.7971,0 9.777,0.86806 4.9799,0.86806 10.1883,2.60417 z" style="font-size:93.56725311px;font-family:'League Spartan';letter-spacing:5px;text-anchor:middle;fill:#000000"/>
		<path d="m 1104.6546,161.78911 43.1286,0 0,7.76681 -33.8998,0 0,20.19371 32.4835,0 0,7.76682 -32.4835,0 0,24.71674 34.7222,0 0,7.76681 -43.951,0 0,-68.21089 z" style="font-size:93.56725311px;font-family:'League Spartan';letter-spacing:5px;text-anchor:middle;fill:#000000"/>
		<path d="m 1168.8652,161.78911 9.2288,0 0,60.44408 33.2145,0 0,7.76681 -42.4433,0 0,-68.21089 z" style="font-size:93.56725311px;font-family:'League Spartan';letter-spacing:5px;text-anchor:middle;fill:#000000"/>
		<path d="m 1225.9485,161.78911 43.1287,0 0,7.76681 -33.8999,0 0,20.19371 32.4836,0 0,7.76682 -32.4836,0 0,24.71674 34.7222,0 0,7.76681 -43.951,0 0,-68.21089 z" style="font-size:93.56725311px;font-family:'League Spartan';letter-spacing:5px;text-anchor:middle;fill:#000000"/>
		<path d="m 1341.2372,167.04313 0,9.73136 q -4.6601,-4.34028 -9.9598,-6.48758 -5.254,-2.14729 -11.1934,-2.14729 -11.6959,0 -17.9093,7.17288 -6.2135,7.12719 -6.2135,20.65058 0,13.47771 6.2135,20.65059 6.2134,7.12719 17.9093,7.12719 5.9394,0 11.1934,-2.14729 5.2997,-2.1473 9.9598,-6.48758 l 0,9.63999 q -4.8428,3.28947 -10.2796,4.93421 -5.3911,1.64474 -11.4218,1.64474 -15.4879,0 -24.3969,-9.45724 -8.909,-9.50292 -8.909,-25.90461 0,-16.44736 8.909,-25.9046 8.909,-9.50293 24.3969,-9.50293 6.1221,0 11.5132,1.64474 5.4367,1.59905 10.1882,4.84284 z" style="font-size:93.56725311px;font-family:'League Spartan';letter-spacing:5px;text-anchor:middle;fill:#000000"/>
		<path d="m 1351.1257,161.78911 57.7028,0 0,7.76681 -24.2141,0 0,60.44408 -9.2745,0 0,-60.44408 -24.2142,0 0,-7.76681 z" style="font-size:93.56725311px;font-family:'League Spartan';letter-spacing:5px;text-anchor:middle;fill:#000000"/>
		<path d="m 1422.7832,161.78911 9.2288,0 0,68.21089 -9.2288,0 0,-68.21089 z" style="font-size:93.56725311px;font-family:'League Spartan';letter-spacing:5px;text-anchor:middle;fill:#000000"/>
		<path d="m 1483.0647,168.04824 q -10.0511,0 -15.9905,7.49269 -5.8936,7.49269 -5.8936,20.42215 0,12.88378 5.8936,20.37647 5.9394,7.49269 15.9905,7.49269 10.0512,0 15.8992,-7.49269 5.8936,-7.49269 5.8936,-20.37647 0,-12.92946 -5.8936,-20.42215 -5.848,-7.49269 -15.8992,-7.49269 z m 0,-7.49269 q 14.3458,0 22.935,9.63999 8.5892,9.5943 8.5892,25.76754 0,16.12756 -8.5892,25.76755 -8.5892,9.5943 -22.935,9.5943 -14.3914,0 -23.0263,-9.5943 -8.5892,-9.5943 -8.5892,-25.76755 0,-16.17324 8.5892,-25.76754 8.6349,-9.63999 23.0263,-9.63999 z" style="font-size:93.56725311px;font-family:'League Spartan';letter-spacing:5px;text-anchor:middle;fill:#000000"/>
		<path d="m 1534.0259,161.78911 12.4269,0 30.2449,57.06323 0,-57.06323 8.9547,0 0,68.21089 -12.4269,0 -30.2449,-57.06323 0,57.06323 -8.9547,0 0,-68.21089 z" style="font-size:93.56725311px;font-family:'League Spartan';letter-spacing:5px;text-anchor:middle;fill:#000000"/>
	</g>
	<g style="font-size:93.56725311px;font-family:'League Spartan';letter-spacing:5px;text-anchor:middle;fill:#000000">
		<path d="m -411.06179,268.04824 q -10.05117,0 -15.99049,7.49269 -5.89364,7.49269 -5.89364,20.42215 0,12.88378 5.89364,20.37647 5.93932,7.49269 15.99049,7.49269 10.05117,0 15.89913,-7.49269 5.89364,-7.49269 5.89364,-20.37647 0,-12.92946 -5.89364,-20.42215 -5.84796,-7.49269 -15.89913,-7.49269 z m 0,-7.49269 q 14.34576,0 22.93494,9.63999 8.58919,9.5943 8.58919,25.76754 0,16.12756 -8.58919,25.76755 -8.58918,9.5943 -22.93494,9.5943 -14.39144,0 -23.02631,-9.5943 -8.58918,-9.5943 -8.58918,-25.76755 0,-16.17324 8.58918,-25.76754 8.63487,-9.63999 23.02631,-9.63999 z" style="font-size:93.56725311px;font-family:'League Spartan';letter-spacing:5px;text-anchor:middle;fill:#000000"/>
		<path d="m -327.75404,298.01901 q 2.96966,1.00511 5.75658,4.29459 2.8326,3.28947 5.6652,9.04605 l 9.36587,18.64035 -9.91411,0 -8.72624,-17.49817 q -3.38085,-6.85307 -6.57895,-9.09174 -3.15241,-2.23867 -8.63487,-2.23867 l -10.05117,0 0,28.82858 -9.2288,0 0,-68.21089 20.83333,0 q 11.69591,0 17.45249,4.88852 5.75658,4.88852 5.75658,14.75695 0,6.44188 -3.01535,10.69078 -2.96967,4.24891 -8.68056,5.89365 z m -23.11769,-28.64584 0,24.21418 11.60453,0 q 6.67032,0 10.05117,-3.06103 3.42654,-3.10673 3.42654,-9.09174 0,-5.98502 -3.42654,-9.00037 -3.38085,-3.06104 -10.05117,-3.06104 l -11.60453,0 z" style="font-size:93.56725311px;font-family:'League Spartan';letter-spacing:5px;text-anchor:middle;fill:#000000"/>
		<path d="m -264.71127,261.78911 57.70285,0 0,7.76681 -24.21418,0 0,60.44408 -9.27449,0 0,-60.44408 -24.21418,0 0,-7.76681 z" style="font-size:93.56725311px;font-family:'League Spartan';letter-spacing:5px;text-anchor:middle;fill:#000000"/>
		<path d="m -193.05375,261.78911 9.2288,0 0,27.96052 33.53436,0 0,-27.96052 9.2288,0 0,68.21089 -9.2288,0 0,-32.48355 -33.53436,0 0,32.48355 -9.2288,0 0,-68.21089 z" style="font-size:93.56725311px;font-family:'League Spartan';letter-spacing:5px;text-anchor:middle;fill:#000000"/>
		<path d="m -117.69555,261.78911 43.128658,0 0,7.76681 -33.899858,0 0,20.19371 32.483556,0 0,7.76682 -32.483556,0 0,24.71674 34.722226,0 0,7.76681 -43.951026,0 0,-68.21089 z" style="font-size:93.56725311px;font-family:'League Spartan';letter-spacing:5px;text-anchor:middle;fill:#000000"/>
		<path d="m -9.4682117,269.37317 0,25.63048 11.6045324,0 q 6.441886,0 9.9597953,-3.33516 3.51791,-3.33516 3.51791,-9.50292 0,-6.12208 -3.51791,-9.45724 -3.5179093,-3.33516 -9.9597953,-3.33516 l -11.6045324,0 z m -9.2288013,-7.58406 20.8333337,0 q 11.4674713,0 17.3154243,5.20833 5.89364,5.16265 5.89364,15.16813 0,10.09686 -5.89364,15.2595 -5.847953,5.16265 -17.3154243,5.16265 l -11.6045324,0 0,27.41228 -9.2288013,0 0,-68.21089 z" style="font-size:93.56725311px;font-family:'League Spartan';letter-spacing:5px;text-anchor:middle;fill:#000000"/>
		<path d="m 75.118778,298.01901 q 2.969664,1.00511 5.756579,4.29459 2.832603,3.28947 5.665205,9.04605 L 95.906425,330 l -9.914109,0 -8.726243,-17.49817 q -3.380848,-6.85307 -6.578947,-9.09174 -3.152412,-2.23867 -8.634869,-2.23867 l -10.051169,0 0,28.82858 -9.228802,0 0,-68.21089 20.833334,0 q 11.695907,0 17.452486,4.88852 5.756579,4.88852 5.756579,14.75695 0,6.44188 -3.015351,10.69078 -2.969664,4.24891 -8.680556,5.89365 z m -23.11769,-28.64584 0,24.21418 11.604532,0 q 6.670322,0 10.05117,-3.06103 3.426535,-3.10673 3.426535,-9.09174 0,-5.98502 -3.426535,-9.00037 -3.380848,-3.06104 -10.05117,-3.06104 l -11.604532,0 z" style="font-size:93.56725311px;font-family:'League Spartan';letter-spacing:5px;text-anchor:middle;fill:#000000"/>
		<path d="m 112.83073,261.78911 43.12865,0 0,7.76681 -33.89985,0 0,20.19371 32.48355,0 0,7.76682 -32.48355,0 0,24.71674 34.72222,0 0,7.76681 -43.95102,0 0,-68.21089 z" style="font-size:93.56725311px;font-family:'League Spartan';letter-spacing:5px;text-anchor:middle;fill:#000000"/>
		<path d="m 217.93128,264.02778 0,9.00036 q -5.25402,-2.51279 -9.9141,-3.74634 -4.66009,-1.23356 -9.00037,-1.23356 -7.53838,0 -11.65022,2.92398 -4.06615,2.92398 -4.06615,8.31506 0,4.52303 2.69554,6.85307 2.74123,2.28436 10.32529,3.70066 l 5.57383,1.14218 q 10.32529,1.96454 15.21382,6.94444 4.93421,4.93421 4.93421,13.24927 0,9.91411 -6.67032,15.03107 -6.62464,5.11696 -19.46272,5.11696 -4.84284,0 -10.3253,-1.09649 -5.43677,-1.0965 -11.28472,-3.24379 l 0,-9.50293 q 5.61952,3.15242 11.0106,4.75147 5.39108,1.59905 10.59942,1.59905 7.90387,0 12.19846,-3.10673 4.29459,-3.10672 4.29459,-8.8633 0,-5.02559 -3.10672,-7.85819 -3.06104,-2.8326 -10.09686,-4.2489 l -5.61952,-1.09649 q -10.32529,-2.05593 -14.93969,-6.44189 -4.6144,-4.38597 -4.6144,-12.19847 0,-9.04605 6.35051,-14.25438 6.3962,-5.20834 17.58955,-5.20834 4.79715,0 9.77704,0.86806 4.9799,0.86806 10.18823,2.60417 z" style="font-size:93.56725311px;font-family:'League Spartan';letter-spacing:5px;text-anchor:middle;fill:#000000"/>
		<path d="m 241.43455,261.78911 43.12865,0 0,7.76681 -33.89985,0 0,20.19371 32.48355,0 0,7.76682 -32.48355,0 0,24.71674 34.72222,0 0,7.76681 -43.95102,0 0,-68.21089 z" style="font-size:93.56725311px;font-family:'League Spartan';letter-spacing:5px;text-anchor:middle;fill:#000000"/>
		<path d="m 337.99155,298.01901 q 2.96966,1.00511 5.75658,4.29459 2.8326,3.28947 5.6652,9.04605 L 358.7792,330 l -9.91411,0 -8.72624,-17.49817 q -3.38085,-6.85307 -6.57895,-9.09174 -3.15241,-2.23867 -8.63487,-2.23867 l -10.05117,0 0,28.82858 -9.2288,0 0,-68.21089 20.83333,0 q 11.69591,0 17.45249,4.88852 5.75658,4.88852 5.75658,14.75695 0,6.44188 -3.01535,10.69078 -2.96967,4.24891 -8.68056,5.89365 z m -23.11769,-28.64584 0,24.21418 11.60453,0 q 6.67032,0 10.05117,-3.06103 3.42654,-3.10673 3.42654,-9.09174 0,-5.98502 -3.42654,-9.00037 -3.38085,-3.06104 -10.05117,-3.06104 l -11.60453,0 z" style="font-size:93.56725311px;font-family:'League Spartan';letter-spacing:5px;text-anchor:middle;fill:#000000"/>
		<path d="m 388.17613,330 -26.04166,-68.21089 9.63998,0 21.61002,57.42873 21.6557,-57.42873 9.5943,0 L 398.63849,330 l -10.46236,0 z" style="font-size:93.56725311px;font-family:'League Spartan';letter-spacing:5px;text-anchor:middle;fill:#000000"/>
		<path d="m 456.31574,270.88085 -12.51827,33.94554 25.08223,0 -12.56396,-33.94554 z m -5.20833,-9.09174 10.46235,0 25.99598,68.21089 -9.5943,0 -6.21345,-17.49817 -30.74744,0 L 434.7971,330 l -9.73136,0 26.04167,-68.21089 z" style="font-size:93.56725311px;font-family:'League Spartan';letter-spacing:5px;text-anchor:middle;fill:#000000"/>
		<path d="m 485.71272,261.78911 57.70286,0 0,7.76681 -24.21419,0 0,60.44408 -9.27448,0 0,-60.44408 -24.21419,0 0,-7.76681 z" style="font-size:93.56725311px;font-family:'League Spartan';letter-spacing:5px;text-anchor:middle;fill:#000000"/>
		<path d="m 557.37022,261.78911 9.2288,0 0,68.21089 -9.2288,0 0,-68.21089 z" style="font-size:93.56725311px;font-family:'League Spartan';letter-spacing:5px;text-anchor:middle;fill:#000000"/>
		<path d="m 617.65171,268.04824 q -10.05117,0 -15.99049,7.49269 -5.89364,7.49269 -5.89364,20.42215 0,12.88378 5.89364,20.37647 5.93932,7.49269 15.99049,7.49269 10.05117,0 15.89913,-7.49269 5.89364,-7.49269 5.89364,-20.37647 0,-12.92946 -5.89364,-20.42215 -5.84796,-7.49269 -15.89913,-7.49269 z m 0,-7.49269 q 14.34576,0 22.93495,9.63999 8.58918,9.5943 8.58918,25.76754 0,16.12756 -8.58918,25.76755 -8.58919,9.5943 -22.93495,9.5943 -14.39144,0 -23.02631,-9.5943 -8.58918,-9.5943 -8.58918,-25.76755 0,-16.17324 8.58918,-25.76754 8.63487,-9.63999 23.02631,-9.63999 z" style="font-size:93.56725311px;font-family:'League Spartan';letter-spacing:5px;text-anchor:middle;fill:#000000"/>
		<path d="m 668.61289,261.78911 12.4269,0 30.24489,57.06323 0,-57.06323 8.95468,0 0,68.21089 -12.4269,0 -30.24489,-57.06323 0,57.06323 -8.95468,0 0,-68.21089 z" style="font-size:93.56725311px;font-family:'League Spartan';letter-spacing:5px;text-anchor:middle;fill:#000000"/>
		<path d="m 806.08006,268.04824 q -10.05117,0 -15.9905,7.49269 -5.89364,7.49269 -5.89364,20.42215 0,12.88378 5.89364,20.37647 5.93933,7.49269 15.9905,7.49269 10.05117,0 15.89912,-7.49269 5.89364,-7.49269 5.89364,-20.37647 0,-12.92946 -5.89364,-20.42215 -5.84795,-7.49269 -15.89912,-7.49269 z m 0,-7.49269 q 14.34576,0 22.93494,9.63999 8.58918,9.5943 8.58918,25.76754 0,16.12756 -8.58918,25.76755 -8.58918,9.5943 -22.93494,9.5943 -14.39145,0 -23.02632,-9.5943 -8.58918,-9.5943 -8.58918,-25.76755 0,-16.17324 8.58918,-25.76754 8.63487,-9.63999 23.02632,-9.63999 z" style="font-size:93.56725311px;font-family:'League Spartan';letter-spacing:5px;text-anchor:middle;fill:#000000"/>
		<path d="m 857.04124,261.78911 39.19956,0 0,7.76681 -29.97076,0 0,20.10234 27.04678,0 0,7.76681 -27.04678,0 0,32.57493 -9.2288,0 0,-68.21089 z" style="font-size:93.56725311px;font-family:'League Spartan';letter-spacing:5px;text-anchor:middle;fill:#000000"/>
		<path d="m 950.74009,261.78911 39.19956,0 0,7.76681 -29.97076,0 0,20.10234 27.04679,0 0,7.76681 -27.04679,0 0,32.57493 -9.2288,0 0,-68.21089 z" style="font-size:93.56725311px;font-family:'League Spartan';letter-spacing:5px;text-anchor:middle;fill:#000000"/>
		<path d="m 1023.8596,270.88085 -12.5182,33.94554 25.0822,0 -12.564,-33.94554 z m -5.2083,-9.09174 10.4623,0 25.996,68.21089 -9.5943,0 -6.2134,-17.49817 -30.7475,0 -6.2134,17.49817 -9.73137,0 26.04167,-68.21089 z" style="font-size:93.56725311px;font-family:'League Spartan';letter-spacing:5px;text-anchor:middle;fill:#000000"/>
		<path d="m 1081.5826,330 -26.0417,-68.21089 9.64,0 21.61,57.42873 21.6557,-57.42873 9.5943,0 -25.996,68.21089 -10.4623,0 z" style="font-size:93.56725311px;font-family:'League Spartan';letter-spacing:5px;text-anchor:middle;fill:#000000"/>
		<path d="m 1158.9967,268.04824 q -10.0512,0 -15.9905,7.49269 -5.8937,7.49269 -5.8937,20.42215 0,12.88378 5.8937,20.37647 5.9393,7.49269 15.9905,7.49269 10.0512,0 15.8991,-7.49269 5.8936,-7.49269 5.8936,-20.37647 0,-12.92946 -5.8936,-20.42215 -5.8479,-7.49269 -15.8991,-7.49269 z m 0,-7.49269 q 14.3457,0 22.9349,9.63999 8.5892,9.5943 8.5892,25.76754 0,16.12756 -8.5892,25.76755 -8.5892,9.5943 -22.9349,9.5943 -14.3915,0 -23.0263,-9.5943 -8.5892,-9.5943 -8.5892,-25.76755 0,-16.17324 8.5892,-25.76754 8.6348,-9.63999 23.0263,-9.63999 z" style="font-size:93.56725311px;font-family:'League Spartan';letter-spacing:5px;text-anchor:middle;fill:#000000"/>
		<path d="m 1208.9072,261.78911 9.2745,0 0,41.43823 q 0,10.96491 3.9748,15.80775 3.9747,4.79715 12.8837,4.79715 8.8633,0 12.8381,-4.79715 3.9748,-4.84284 3.9748,-15.80775 l 0,-41.43823 9.2745,0 0,42.58041 q 0,13.34064 -6.6247,20.14802 -6.5789,6.80739 -19.4627,6.80739 -12.9294,0 -19.5541,-6.80739 -6.5789,-6.80738 -6.5789,-20.14802 l 0,-42.58041 z" style="font-size:93.56725311px;font-family:'League Spartan';letter-spacing:5px;text-anchor:middle;fill:#000000"/>
		<path d="m 1315.8351,298.01901 q 2.9697,1.00511 5.7566,4.29459 2.8326,3.28947 5.6652,9.04605 l 9.3659,18.64035 -9.9141,0 -8.7263,-17.49817 q -3.3808,-6.85307 -6.5789,-9.09174 -3.1524,-2.23867 -8.6349,-2.23867 l -10.0512,0 0,28.82858 -9.2288,0 0,-68.21089 20.8334,0 q 11.6959,0 17.4524,4.88852 5.7566,4.88852 5.7566,14.75695 0,6.44188 -3.0153,10.69078 -2.9697,4.24891 -8.6806,5.89365 z m -23.1177,-28.64584 0,24.21418 11.6046,0 q 6.6703,0 10.0511,-3.06103 3.4266,-3.10673 3.4266,-9.09174 0,-5.98502 -3.4266,-9.00037 -3.3808,-3.06104 -10.0511,-3.06104 l -11.6046,0 z" style="font-size:93.56725311px;font-family:'League Spartan';letter-spacing:5px;text-anchor:middle;fill:#000000"/>
		<path d="m 1353.5471,261.78911 43.1287,0 0,7.76681 -33.8999,0 0,20.19371 32.4836,0 0,7.76682 -32.4836,0 0,24.71674 34.7222,0 0,7.76681 -43.951,0 0,-68.21089 z" style="font-size:93.56725311px;font-family:'League Spartan';letter-spacing:5px;text-anchor:middle;fill:#000000"/>
		<path d="m 1426.9865,269.37317 0,53.04277 11.1476,0 q 14.1174,0 20.6506,-6.3962 6.579,-6.3962 6.579,-20.19372 0,-13.70614 -6.579,-20.05665 -6.5332,-6.3962 -20.6506,-6.3962 l -11.1476,0 z m -9.2288,-7.58406 18.9601,0 q 19.8282,0 29.1027,8.26937 9.2745,8.22368 9.2745,25.76754 0,17.63524 -9.3202,25.90461 Q 1456.4547,330 1436.7178,330 l -18.9601,0 0,-68.21089 z" style="font-size:93.56725311px;font-family:'League Spartan';letter-spacing:5px;text-anchor:middle;fill:#000000"/>
		<path d="m 1561.8951,298.01901 q 2.9696,1.00511 5.7565,4.29459 2.8326,3.28947 5.6652,9.04605 l 9.3659,18.64035 -9.9141,0 -8.7263,-17.49817 q -3.3808,-6.85307 -6.5789,-9.09174 -3.1524,-2.23867 -8.6349,-2.23867 l -10.0511,0 0,28.82858 -9.2288,0 0,-68.21089 20.8333,0 q 11.6959,0 17.4525,4.88852 5.7566,4.88852 5.7566,14.75695 0,6.44188 -3.0154,10.69078 -2.9697,4.24891 -8.6805,5.89365 z m -23.1177,-28.64584 0,24.21418 11.6045,0 q 6.6703,0 10.0512,-3.06103 3.4265,-3.10673 3.4265,-9.09174 0,-5.98502 -3.4265,-9.00037 -3.3809,-3.06104 -10.0512,-3.06104 l -11.6045,0 z" style="font-size:93.56725311px;font-family:'League Spartan';letter-spacing:5px;text-anchor:middle;fill:#000000"/>
		<path d="m 1618.5673,270.88085 -12.5183,33.94554 25.0822,0 -12.5639,-33.94554 z m -5.2084,-9.09174 10.4624,0 25.996,68.21089 -9.5943,0 -6.2135,-17.49817 -30.7474,0 -6.2135,17.49817 -9.7313,0 26.0416,-68.21089 z" style="font-size:93.56725311px;font-family:'League Spartan';letter-spacing:5px;text-anchor:middle;fill:#000000"/>
		<path d="m 1714.1647,267.04313 0,9.73136 q -4.66,-4.34028 -9.9598,-6.48758 -5.254,-2.14729 -11.1933,-2.14729 -11.6959,0 -17.9094,7.17288 -6.2134,7.12719 -6.2134,20.65058 0,13.47771 6.2134,20.65059 6.2135,7.12719 17.9094,7.12719 5.9393,0 11.1933,-2.14729 5.2998,-2.1473 9.9598,-6.48758 l 0,9.63999 q -4.8428,3.28947 -10.2796,4.93421 -5.391,1.64474 -11.4217,1.64474 -15.488,0 -24.397,-9.45724 -8.909,-9.50292 -8.909,-25.90461 0,-16.44736 8.909,-25.9046 8.909,-9.50293 24.397,-9.50293 6.122,0 11.5131,1.64474 5.4368,1.59905 10.1882,4.84284 z" style="font-size:93.56725311px;font-family:'League Spartan';letter-spacing:5px;text-anchor:middle;fill:#000000"/>
		<path d="m 1733.5106,261.78911 43.1287,0 0,7.76681 -33.8999,0 0,20.19371 32.4836,0 0,7.76682 -32.4836,0 0,24.71674 34.7222,0 0,7.76681 -43.951,0 0,-68.21089 z" style="font-size:93.56725311px;font-family:'League Spartan';letter-spacing:5px;text-anchor:middle;fill:#000000"/>
		<path d="m 1838.611,264.02778 0,9.00036 q -5.254,-2.51279 -9.9141,-3.74634 -4.6601,-1.23356 -9.0003,-1.23356 -7.5384,0 -11.6503,2.92398 -4.0661,2.92398 -4.0661,8.31506 0,4.52303 2.6955,6.85307 2.7413,2.28436 10.3253,3.70066 l 5.5738,1.14218 q 10.3253,1.96454 15.2139,6.94444 4.9342,4.93421 4.9342,13.24927 0,9.91411 -6.6703,15.03107 -6.6247,5.11696 -19.4628,5.11696 -4.8428,0 -10.3253,-1.09649 -5.4367,-1.0965 -11.2847,-3.24379 l 0,-9.50293 q 5.6195,3.15242 11.0106,4.75147 5.3911,1.59905 10.5994,1.59905 7.9039,0 12.1985,-3.10673 4.2946,-3.10672 4.2946,-8.8633 0,-5.02559 -3.1067,-7.85819 -3.0611,-2.8326 -10.0969,-4.2489 l -5.6195,-1.09649 q -10.3253,-2.05593 -14.9397,-6.44189 -4.6144,-4.38597 -4.6144,-12.19847 0,-9.04605 6.3505,-14.25438 6.3962,-5.20834 17.5896,-5.20834 4.7971,0 9.777,0.86806 4.9799,0.86806 10.1882,2.60417 z" style="font-size:93.56725311px;font-family:'League Spartan';letter-spacing:5px;text-anchor:middle;fill:#000000"/>
	</g>
	<g style="font-size:93.56725311px;font-family:'League Spartan';letter-spacing:5px;text-anchor:middle;fill:#000000">
		<path d="m 3.9309098,361.78911 9.2288012,0 0,68.21089 -9.2288012,0 0,-68.21089 z" style="font-size:93.56725311px;font-family:'League Spartan';letter-spacing:5px;text-anchor:middle;fill:#000000"/>
		<path d="m 36.525942,361.78911 12.4269,0 30.244884,57.06323 0,-57.06323 8.954678,0 0,68.21089 -12.4269,0 -30.244884,-57.06323 0,57.06323 -8.954678,0 0,-68.21089 z" style="font-size:93.56725311px;font-family:'League Spartan';letter-spacing:5px;text-anchor:middle;fill:#000000"/>
		<path d="m 136.84941,361.78911 57.70285,0 0,7.76681 -24.21418,0 0,60.44408 -9.27449,0 0,-60.44408 -24.21418,0 0,-7.76681 z" style="font-size:93.56725311px;font-family:'League Spartan';letter-spacing:5px;text-anchor:middle;fill:#000000"/>
		<path d="m 208.50693,361.78911 9.2288,0 0,27.96052 33.53436,0 0,-27.96052 9.2288,0 0,68.21089 -9.2288,0 0,-32.48355 -33.53436,0 0,32.48355 -9.2288,0 0,-68.21089 z" style="font-size:93.56725311px;font-family:'League Spartan';letter-spacing:5px;text-anchor:middle;fill:#000000"/>
		<path d="m 283.86511,361.78911 43.12866,0 0,7.76681 -33.89985,0 0,20.19371 32.48355,0 0,7.76682 -32.48355,0 0,24.71674 34.72222,0 0,7.76681 -43.95103,0 0,-68.21089 z" style="font-size:93.56725311px;font-family:'League Spartan';letter-spacing:5px;text-anchor:middle;fill:#000000"/>
		<path d="m 423.75364,364.02778 0,9.00036 q -5.25403,-2.51279 -9.91411,-3.74634 -4.66009,-1.23356 -9.00037,-1.23356 -7.53838,0 -11.65022,2.92398 -4.06615,2.92398 -4.06615,8.31506 0,4.52303 2.69554,6.85307 2.74123,2.28436 10.32529,3.70066 l 5.57383,1.14218 q 10.32529,1.96454 15.21382,6.94444 4.93421,4.93421 4.93421,13.24927 0,9.91411 -6.67032,15.03107 -6.62464,5.11696 -19.46272,5.11696 -4.84284,0 -10.3253,-1.09649 -5.43677,-1.0965 -11.28472,-3.24379 l 0,-9.50293 q 5.61952,3.15242 11.0106,4.75147 5.39108,1.59905 10.59942,1.59905 7.90387,0 12.19846,-3.10673 4.29459,-3.10672 4.29459,-8.8633 0,-5.02559 -3.10672,-7.85819 -3.06104,-2.8326 -10.09686,-4.2489 l -5.61952,-1.09649 q -10.32529,-2.05593 -14.93969,-6.44189 -4.6144,-4.38597 -4.6144,-12.19847 0,-9.04605 6.35051,-14.25438 6.3962,-5.20834 17.58955,-5.20834 4.79715,0 9.77704,0.86806 4.9799,0.86806 10.18824,2.60417 z" style="font-size:93.56725311px;font-family:'League Spartan';letter-spacing:5px;text-anchor:middle;fill:#000000"/>
		<path d="m 437.79969,361.78911 57.70285,0 0,7.76681 -24.21418,0 0,60.44408 -9.27449,0 0,-60.44408 -24.21418,0 0,-7.76681 z" style="font-size:93.56725311px;font-family:'League Spartan';letter-spacing:5px;text-anchor:middle;fill:#000000"/>
		<path d="m 541.80371,398.01901 q 2.96966,1.00511 5.75658,4.29459 2.8326,3.28947 5.6652,9.04605 L 562.59135,430 l -9.9141,0 -8.72625,-17.49817 q -3.38084,-6.85307 -6.57894,-9.09174 -3.15242,-2.23867 -8.63487,-2.23867 l -10.05117,0 0,28.82858 -9.2288,0 0,-68.21089 20.83333,0 q 11.69591,0 17.45249,4.88852 5.75657,4.88852 5.75657,14.75695 0,6.44188 -3.01535,10.69078 -2.96966,4.24891 -8.68055,5.89365 z m -23.11769,-28.64584 0,24.21418 11.60453,0 q 6.67032,0 10.05117,-3.06103 3.42653,-3.10673 3.42653,-9.09174 0,-5.98502 -3.42653,-9.00037 -3.38085,-3.06104 -10.05117,-3.06104 l -11.60453,0 z" style="font-size:93.56725311px;font-family:'League Spartan';letter-spacing:5px;text-anchor:middle;fill:#000000"/>
		<path d="m 578.46488,361.78911 9.27449,0 0,41.43823 q 0,10.96491 3.97478,15.80775 3.97478,4.79715 12.88377,4.79715 8.86331,0 12.83809,-4.79715 3.97478,-4.84284 3.97478,-15.80775 l 0,-41.43823 9.27449,0 0,42.58041 q 0,13.34064 -6.62464,20.14802 -6.57894,6.80739 -19.46272,6.80739 -12.92945,0 -19.55409,-6.80739 -6.57895,-6.80738 -6.57895,-20.14802 l 0,-42.58041 z" style="font-size:93.56725311px;font-family:'League Spartan';letter-spacing:5px;text-anchor:middle;fill:#000000"/>
		<path d="m 699.55589,420.26864 0,-18.32054 -15.07675,0 0,-7.58407 24.21418,0 0,29.28546 q -5.3454,3.79203 -11.78728,5.75658 -6.44189,1.91886 -13.75183,1.91886 -15.9905,0 -25.03655,-9.32018 -9.00037,-9.36586 -9.00037,-26.04167 0,-16.72149 9.00037,-26.04166 9.04605,-9.36587 25.03655,-9.36587 6.67032,0 12.65534,1.64474 6.0307,1.64474 11.10197,4.84284 l 0,9.82273 q -5.11696,-4.34028 -10.87354,-6.53326 -5.75658,-2.19298 -12.10709,-2.19298 -12.51827,0 -18.8231,6.99013 -6.25914,6.99013 -6.25914,20.83333 0,13.79752 6.25914,20.78765 6.30483,6.99013 18.8231,6.99013 4.88853,0 8.72624,-0.82237 3.83772,-0.86805 6.89876,-2.64985 z" style="font-size:93.56725311px;font-family:'League Spartan';letter-spacing:5px;text-anchor:middle;fill:#000000"/>
		<path d="m 777.1071,420.26864 0,-18.32054 -15.07675,0 0,-7.58407 24.21418,0 0,29.28546 q -5.3454,3.79203 -11.78728,5.75658 -6.44189,1.91886 -13.75183,1.91886 -15.9905,0 -25.03655,-9.32018 -9.00037,-9.36586 -9.00037,-26.04167 0,-16.72149 9.00037,-26.04166 9.04605,-9.36587 25.03655,-9.36587 6.67032,0 12.65534,1.64474 6.0307,1.64474 11.10197,4.84284 l 0,9.82273 q -5.11696,-4.34028 -10.87354,-6.53326 -5.75658,-2.19298 -12.10709,-2.19298 -12.51827,0 -18.8231,6.99013 -6.25914,6.99013 -6.25914,20.83333 0,13.79752 6.25914,20.78765 6.30483,6.99013 18.8231,6.99013 4.88852,0 8.72624,-0.82237 3.83772,-0.86805 6.89876,-2.64985 z" style="font-size:93.56725311px;font-family:'League Spartan';letter-spacing:5px;text-anchor:middle;fill:#000000"/>
		<path d="m 808.14874,361.78911 9.22881,0 0,60.44408 33.21454,0 0,7.76681 -42.44335,0 0,-68.21089 z" style="font-size:93.56725311px;font-family:'League Spartan';letter-spacing:5px;text-anchor:middle;fill:#000000"/>
		<path d="m 865.23206,361.78911 43.12865,0 0,7.76681 -33.89985,0 0,20.19371 32.48355,0 0,7.76682 -32.48355,0 0,24.71674 34.72222,0 0,7.76681 -43.95102,0 0,-68.21089 z" style="font-size:93.56725311px;font-family:'League Spartan';letter-spacing:5px;text-anchor:middle;fill:#000000"/>
		<path d="m 964.23059,361.78911 39.19961,0 0,7.76681 -29.97081,0 0,20.10234 27.04681,0 0,7.76681 -27.04681,0 0,32.57493 -9.2288,0 0,-68.21089 z" style="font-size:93.56725311px;font-family:'League Spartan';letter-spacing:5px;text-anchor:middle;fill:#000000"/>
		<path d="m 1050.8278,368.04824 q -10.0511,0 -15.9905,7.49269 -5.8936,7.49269 -5.8936,20.42215 0,12.88378 5.8936,20.37647 5.9394,7.49269 15.9905,7.49269 10.0512,0 15.8991,-7.49269 5.8937,-7.49269 5.8937,-20.37647 0,-12.92946 -5.8937,-20.42215 -5.8479,-7.49269 -15.8991,-7.49269 z m 0,-7.49269 q 14.3458,0 22.935,9.63999 8.5891,9.5943 8.5891,25.76754 0,16.12756 -8.5891,25.76755 -8.5892,9.5943 -22.935,9.5943 -14.3914,0 -23.0263,-9.5943 -8.5892,-9.5943 -8.5892,-25.76755 0,-16.17324 8.5892,-25.76754 8.6349,-9.63999 23.0263,-9.63999 z" style="font-size:93.56725311px;font-family:'League Spartan';letter-spacing:5px;text-anchor:middle;fill:#000000"/>
		<path d="m 1134.1356,398.01901 q 2.9696,1.00511 5.7565,4.29459 2.8326,3.28947 5.6652,9.04605 l 9.3659,18.64035 -9.9141,0 -8.7262,-17.49817 q -3.3809,-6.85307 -6.579,-9.09174 -3.1524,-2.23867 -8.6349,-2.23867 l -10.0511,0 0,28.82858 -9.2288,0 0,-68.21089 20.8333,0 q 11.6959,0 17.4525,4.88852 5.7566,4.88852 5.7566,14.75695 0,6.44188 -3.0154,10.69078 -2.9697,4.24891 -8.6805,5.89365 z m -23.1177,-28.64584 0,24.21418 11.6045,0 q 6.6703,0 10.0512,-3.06103 3.4265,-3.10673 3.4265,-9.09174 0,-5.98502 -3.4265,-9.00037 -3.3809,-3.06104 -10.0512,-3.06104 l -11.6045,0 z" style="font-size:93.56725311px;font-family:'League Spartan';letter-spacing:5px;text-anchor:middle;fill:#000000"/>
		<path d="m 1206.6356,361.78911 9.2288,0 0,60.44408 33.2146,0 0,7.76681 -42.4434,0 0,-68.21089 z" style="font-size:93.56725311px;font-family:'League Spartan';letter-spacing:5px;text-anchor:middle;fill:#000000"/>
		<path d="m 1263.7189,361.78911 9.2288,0 0,68.21089 -9.2288,0 0,-68.21089 z" style="font-size:93.56725311px;font-family:'League Spartan';letter-spacing:5px;text-anchor:middle;fill:#000000"/>
		<path d="m 1296.314,361.78911 39.1995,0 0,7.76681 -29.9707,0 0,20.10234 27.0468,0 0,7.76681 -27.0468,0 0,32.57493 -9.2288,0 0,-68.21089 z" style="font-size:93.56725311px;font-family:'League Spartan';letter-spacing:5px;text-anchor:middle;fill:#000000"/>
		<path d="m 1355.2247,361.78911 43.1287,0 0,7.76681 -33.8999,0 0,20.19371 32.4836,0 0,7.76682 -32.4836,0 0,24.71674 34.7223,0 0,7.76681 -43.9511,0 0,-68.21089 z" style="font-size:93.56725311px;font-family:'League Spartan';letter-spacing:5px;text-anchor:middle;fill:#000000"/>
	</g>
	<g style="font-size:70.17543793px;font-family:'League Spartan';letter-spacing:5px;text-anchor:middle;fill:#000000">
		<path d="m 393.61705,542.78235 0,7.29852 q -3.49506,-3.25521 -7.46984,-4.86568 -3.94052,-1.61047 -8.39501,-1.61047 -8.77193,0 -13.43202,5.37966 -4.66009,5.34539 -4.66009,15.48793 0,10.10828 4.66009,15.48794 4.66009,5.3454 13.43202,5.3454 4.45449,0 8.39501,-1.61047 3.97478,-1.61048 7.46984,-4.86568 l 0,7.22998 q -3.63212,2.46711 -7.7097,3.70066 -4.04331,1.23356 -8.56634,1.23356 -11.61595,0 -18.2977,-7.09293 -6.68174,-7.1272 -6.68174,-19.42846 0,-12.33552 6.68174,-19.42845 6.68175,-7.12719 18.2977,-7.12719 4.59156,0 8.63487,1.23355 4.07758,1.19929 7.64117,3.63213 z" style="font-size:70.17543793px;font-family:'League Spartan';letter-spacing:5px;text-anchor:middle;fill:#000000"/>
		<path d="m 409.37637,538.84183 6.9216,0 0,20.9704 25.15077,0 0,-20.9704 6.9216,0 0,51.15817 -6.9216,0 0,-24.36266 -25.15077,0 0,24.36266 -6.9216,0 0,-51.15817 z" style="font-size:70.17543793px;font-family:'League Spartan';letter-spacing:5px;text-anchor:middle;fill:#000000"/>
		<path d="m 484.24343,545.66064 -9.38871,25.45915 18.81168,0 -9.42297,-25.45915 z m -3.90625,-6.81881 7.84676,0 19.49698,51.15817 -7.19572,0 -4.66009,-13.12363 -23.06058,0 -4.66008,13.12363 -7.29852,0 19.53125,-51.15817 z" style="font-size:70.17543793px;font-family:'League Spartan';letter-spacing:5px;text-anchor:middle;fill:#000000"/>
		<path d="m 544.37636,566.01425 q 2.22725,0.75384 4.31744,3.22095 2.12445,2.4671 4.2489,6.78454 L 559.9671,590 l -7.43558,0 -6.54468,-13.12363 q -2.53564,-5.1398 -4.93421,-6.8188 -2.36431,-1.67901 -6.47616,-1.67901 l -7.53837,0 0,21.62144 -6.9216,0 0,-51.15817 15.625,0 q 8.77193,0 13.08936,3.66639 4.31743,3.6664 4.31743,11.06771 0,4.83142 -2.26151,8.01809 -2.22725,3.18668 -6.51042,4.42023 z m -17.33826,-21.48437 0,18.16064 8.7034,0 q 5.00274,0 7.53837,-2.29578 2.5699,-2.33005 2.5699,-6.81881 0,-4.48876 -2.5699,-6.75027 -2.53563,-2.29578 -7.53837,-2.29578 l -8.7034,0 z" style="font-size:70.17543793px;font-family:'League Spartan';letter-spacing:5px;text-anchor:middle;fill:#000000"/>
		<path d="m 573.91035,538.84183 6.9216,0 0,45.33306 24.91091,0 0,5.82511 -31.83251,0 0,-51.15817 z" style="font-size:70.17543793px;font-family:'League Spartan';letter-spacing:5px;text-anchor:middle;fill:#000000"/>
		<path d="m 617.97285,538.84183 32.34649,0 0,5.82511 -25.42489,0 0,15.14529 24.36267,0 0,5.82511 -24.36267,0 0,18.53755 26.04167,0 0,5.82511 -32.96327,0 0,-51.15817 z" style="font-size:70.17543793px;font-family:'League Spartan';letter-spacing:5px;text-anchor:middle;fill:#000000"/>
		<path d="m 698.04824,540.52083 0,6.75028 q -3.94052,-1.8846 -7.43558,-2.80976 -3.49507,-0.92517 -6.75028,-0.92517 -5.65378,0 -8.73766,2.19299 -3.04962,2.19298 -3.04962,6.23629 0,3.39227 2.02166,5.1398 2.05592,1.71327 7.74397,2.7755 l 4.18037,0.85663 q 7.74397,1.47341 11.41036,5.20833 3.70066,3.70066 3.70066,9.93696 0,7.43558 -5.00274,11.2733 -4.96848,3.83772 -14.59704,3.83772 -3.63213,0 -7.74397,-0.82237 -4.07758,-0.82237 -8.46354,-2.43284 l 0,-7.1272 q 4.21464,2.36431 8.25795,3.5636 4.04331,1.19929 7.94956,1.19929 5.9279,0 9.14885,-2.33005 3.22094,-2.33004 3.22094,-6.64747 0,-3.76919 -2.33004,-5.89364 -2.29578,-2.12446 -7.57265,-3.18668 l -4.21463,-0.82237 q -7.74397,-1.54194 -11.20477,-4.83141 -3.4608,-3.28948 -3.4608,-9.14885 0,-6.78454 4.76288,-10.69079 4.79715,-3.90625 13.19216,-3.90625 3.59786,0 7.33278,0.65104 3.73493,0.65104 7.64118,1.95312 z" style="font-size:70.17543793px;font-family:'League Spartan';letter-spacing:5px;text-anchor:middle;fill:#000000"/>
		<path d="m 751.1883,544.52988 0,39.78207 8.36075,0 q 10.58799,0 15.48794,-4.79715 4.93421,-4.79715 4.93421,-15.14528 0,-10.27961 -4.93421,-15.04249 -4.89995,-4.79715 -15.48794,-4.79715 l -8.36075,0 z m -6.9216,-5.68805 14.22012,0 q 14.87117,0 21.82703,6.20203 6.95587,6.16776 6.95587,19.32566 0,13.22642 -6.99013,19.42845 Q 773.28946,590 758.48682,590 l -14.22012,0 0,-51.15817 z" style="font-size:70.17543793px;font-family:'League Spartan';letter-spacing:5px;text-anchor:middle;fill:#000000"/>
		<path d="m 819.13376,545.66064 -9.38871,25.45915 18.81168,0 -9.42297,-25.45915 z m -3.90625,-6.81881 7.84677,0 19.49698,51.15817 -7.19572,0 -4.66009,-13.12363 -23.06058,0 -4.66009,13.12363 -7.29852,0 19.53125,-51.15817 z" style="font-size:70.17543793px;font-family:'League Spartan';letter-spacing:5px;text-anchor:middle;fill:#000000"/>
		<path d="m 879.26672,566.01425 q 2.22724,0.75384 4.31743,3.22095 2.12445,2.4671 4.2489,6.78454 l 7.0244,13.98026 -7.43558,0 -6.54468,-13.12363 q -2.53564,-5.1398 -4.93421,-6.8188 -2.36431,-1.67901 -6.47616,-1.67901 l -7.53837,0 0,21.62144 -6.9216,0 0,-51.15817 15.625,0 q 8.77193,0 13.08936,3.66639 4.31743,3.6664 4.31743,11.06771 0,4.83142 -2.26151,8.01809 -2.22725,3.18668 -6.51041,4.42023 z m -17.33827,-21.48437 0,18.16064 8.7034,0 q 5.00274,0 7.53837,-2.29578 2.56991,-2.33005 2.56991,-6.81881 0,-4.48876 -2.56991,-6.75027 -2.53563,-2.29578 -7.53837,-2.29578 l -8.7034,0 z" style="font-size:70.17543793px;font-family:'League Spartan';letter-spacing:5px;text-anchor:middle;fill:#000000"/>
		<path d="m 901.36511,538.84183 6.99013,0 10.75932,43.24287 10.72506,-43.24287 7.77823,0 10.75932,43.24287 10.72506,-43.24287 7.0244,0 L 953.27712,590 944.57372,590 933.78013,545.59211 922.88375,590 l -8.7034,0 -12.81524,-51.15817 z" style="font-size:70.17543793px;font-family:'League Spartan';letter-spacing:5px;text-anchor:middle;fill:#000000"/>
		<path d="m 980.27549,538.84183 6.9216,0 0,51.15817 -6.9216,0 0,-51.15817 z" style="font-size:70.17543793px;font-family:'League Spartan';letter-spacing:5px;text-anchor:middle;fill:#000000"/>
		<path d="m 1005.9718,538.84183 9.3202,0 22.6836,42.79742 0,-42.79742 6.716,0 0,51.15817 -9.3201,0 -22.6837,-42.79742 0,42.79742 -6.716,0 0,-51.15817 z" style="font-size:70.17543793px;font-family:'League Spartan';letter-spacing:5px;text-anchor:middle;fill:#000000"/>
	</g>
</svg>
